<?xml version="1.0" encoding="utf-8"?>
<!-- Generator: Adobe Illustrator 20.0.0, SVG Export Plug-In . SVG Version: 6.00 Build 0)  -->
<!DOCTYPE svg PUBLIC "-//W3C//DTD SVG 1.1//EN" "http://www.w3.org/Graphics/SVG/1.1/DTD/svg11.dtd">
<svg version="1.1" id="Ebene_1"
	 xmlns="http://www.w3.org/2000/svg" xmlns:xlink="http://www.w3.org/1999/xlink" xmlns:a="http://ns.adobe.com/AdobeSVGViewerExtensions/3.0/"
	 x="0px" y="0px" viewBox="0 0 320 70" enable-background="new 0 0 320 70" xml:space="preserve">
<g>
	<path fill="#FFFFFF" d="M5.692,19.361c0-1.216,0.2-2.441,0.6-3.674c0.4-1.232,0.985-2.354,1.753-3.362
		c0.769-1.008,1.697-1.832,2.786-2.474c1.088-0.64,2.321-0.96,3.698-0.96h28c0.64,0,1.184,0.224,1.633,0.673
		c0.448,0.449,0.672,0.992,0.672,1.632c0,0.641-0.224,1.185-0.672,1.633c-0.449,0.449-0.993,0.673-1.633,0.673H15.537
		c-1.121,0-2.025,0.2-2.714,0.6c-0.689,0.401-1.233,0.888-1.633,1.465c-0.401,0.576-0.672,1.209-0.817,1.897
		c-0.144,0.689-0.216,1.321-0.216,1.897c0,0.577,0.072,1.209,0.216,1.897c0.144,0.689,0.416,1.321,0.817,1.897
		c0.4,0.577,0.944,1.065,1.633,1.465c0.688,0.401,1.592,0.6,2.714,0.6h26.991c0.64,0,1.184,0.224,1.633,0.673
		c0.448,0.449,0.672,0.992,0.672,1.632c0,0.641-0.224,1.185-0.672,1.633c-0.449,0.449-0.993,0.673-1.633,0.673h-28.48
		c-1.313,0-2.481-0.32-3.506-0.96c-1.025-0.64-1.897-1.465-2.617-2.473c-0.721-1.009-1.273-2.137-1.657-3.386
		C5.884,21.763,5.692,20.547,5.692,19.361z"/>
	<path fill="#FFFFFF" d="M56.119,28.967c-0.48,0.576-1.073,0.864-1.777,0.864c-0.641,0-1.185-0.224-1.633-0.673
		c-0.449-0.448-0.672-0.992-0.672-1.633c0-0.576,0.16-1.04,0.48-1.393l11.671-15.704c0.544-0.737,1.264-1.337,2.161-1.801
		c0.896-0.464,1.857-0.696,2.881-0.696c0.961,0,1.873,0.208,2.738,0.624c0.864,0.417,1.568,0.993,2.113,1.729l11.67,15.609
		c0.192,0.224,0.352,0.473,0.48,0.744c0.127,0.272,0.192,0.569,0.192,0.888c0,0.641-0.224,1.185-0.673,1.633
		c-0.449,0.449-0.993,0.673-1.633,0.673c-0.769,0-1.377-0.304-1.825-0.912l-11.19-14.936c-0.224-0.256-0.504-0.536-0.841-0.84
		c-0.336-0.304-0.681-0.456-1.033-0.456c-0.353,0-0.696,0.152-1.032,0.456c-0.336,0.305-0.6,0.585-0.792,0.84L56.119,28.967z"/>
	<path fill="#FFFFFF" d="M127.15,23.42c0.896,0.624,1.808,1.305,2.737,2.041c0.352,0.256,0.656,0.552,0.913,0.888
		c0.256,0.336,0.384,0.729,0.384,1.176c0,0.641-0.224,1.185-0.672,1.633c-0.449,0.449-0.993,0.673-1.633,0.673
		c-0.545,0-1.089-0.224-1.633-0.673c-1.313-0.96-2.658-1.889-4.034-2.785c-1.377-0.896-2.81-1.697-4.298-2.402
		c-1.489-0.704-3.034-1.264-4.634-1.681c-1.602-0.416-3.266-0.624-4.995-0.624h-9.557c-0.417,0.064-0.769,0.256-1.057,0.576
		c-0.288,0.32-0.432,0.721-0.432,1.201v4.082c0,0.641-0.233,1.185-0.697,1.633c-0.464,0.449-1.001,0.673-1.609,0.673
		c-0.641,0-1.185-0.224-1.633-0.673c-0.449-0.448-0.672-0.992-0.672-1.633v-4.61c0-0.8,0.152-1.561,0.456-2.282
		c0.304-0.72,0.712-1.345,1.225-1.873c0.512-0.528,1.12-0.944,1.825-1.249c0.704-0.304,1.472-0.456,2.305-0.456h25.454
		c0.48,0,0.904-0.168,1.273-0.504c0.368-0.336,0.552-0.76,0.552-1.273c0-0.48-0.185-0.896-0.552-1.249
		c-0.369-0.352-0.793-0.528-1.273-0.528h-28.96c-0.641,0-1.185-0.224-1.633-0.673c-0.449-0.448-0.672-0.992-0.672-1.633
		c0-0.64,0.224-1.184,0.672-1.632c0.448-0.448,0.992-0.673,1.633-0.673h28.768c0.896,0,1.736,0.168,2.521,0.504
		c0.784,0.336,1.472,0.793,2.065,1.369c0.592,0.577,1.056,1.249,1.393,2.017c0.336,0.769,0.504,1.602,0.504,2.497
		c0,0.896-0.168,1.729-0.504,2.497c-0.336,0.769-0.801,1.441-1.393,2.017c-0.593,0.577-1.281,1.033-2.065,1.369
		c-0.785,0.336-1.626,0.504-2.521,0.504h-0.192C125.373,22.212,126.253,22.795,127.15,23.42z"/>
	<path fill="#FFFFFF" d="M142.278,21.163c-0.768-0.336-1.441-0.793-2.017-1.369c-0.576-0.576-1.033-1.248-1.369-2.017
		c-0.336-0.769-0.504-1.601-0.504-2.497c0-0.896,0.168-1.729,0.504-2.497c0.336-0.769,0.792-1.441,1.369-2.017
		c0.576-0.576,1.249-1.032,2.017-1.369c0.769-0.336,1.601-0.504,2.497-0.504h29.152c0.64,0,1.184,0.224,1.633,0.673
		c0.448,0.449,0.672,0.992,0.672,1.632c0,0.641-0.224,1.185-0.672,1.633c-0.449,0.449-0.993,0.673-1.633,0.673H144.68
		c-0.48,0-0.905,0.168-1.273,0.504c-0.369,0.336-0.552,0.761-0.552,1.273c0,0.48,0.184,0.896,0.552,1.249
		c0.367,0.353,0.792,0.528,1.273,0.528h26.559c0.896,0,1.736,0.168,2.521,0.504c0.784,0.336,1.465,0.792,2.041,1.369
		c0.577,0.577,1.033,1.257,1.369,2.041c0.336,0.785,0.504,1.626,0.504,2.521c0,0.897-0.168,1.729-0.504,2.497
		c-0.336,0.769-0.792,1.441-1.369,2.017c-0.576,0.576-1.257,1.025-2.041,1.345c-0.785,0.32-1.626,0.48-2.521,0.48h-29.104
		c-0.641,0-1.185-0.224-1.633-0.673c-0.449-0.448-0.672-0.992-0.672-1.633c0-0.64,0.224-1.184,0.672-1.632
		c0.448-0.448,0.992-0.673,1.633-0.673h29.296c0.48,0,0.896-0.168,1.249-0.504c0.352-0.336,0.528-0.745,0.528-1.225
		c0-0.512-0.176-0.944-0.528-1.297c-0.353-0.352-0.769-0.528-1.249-0.528h-26.655C143.879,21.667,143.047,21.499,142.278,21.163z"/>
	<path fill="#FFFFFF" d="M205.769,29.159c-0.449,0.449-0.992,0.673-1.633,0.673c-0.641,0-1.185-0.224-1.633-0.673
		c-0.449-0.448-0.673-0.992-0.673-1.633v-5.859c-1.217,0-2.401-0.16-3.554-0.48c-1.153-0.32-2.362-0.824-3.626-1.513
		c-1.265-0.688-2.618-1.576-4.059-2.665c-1.441-1.088-3.058-2.417-4.851-3.986c-0.257-0.224-0.473-0.496-0.649-0.817
		c-0.176-0.32-0.264-0.656-0.264-1.009c0-0.64,0.223-1.184,0.672-1.632c0.448-0.448,0.992-0.673,1.633-0.673
		c0.32,0,0.608,0.064,0.864,0.192c0.256,0.128,0.512,0.288,0.769,0.481c2.049,1.793,3.77,3.194,5.163,4.202
		c1.393,1.009,2.641,1.753,3.746,2.234c1.104,0.48,2.153,0.777,3.146,0.888c0.992,0.112,2.113,0.168,3.362,0.168
		c1.249,0,2.353-0.048,3.313-0.144c0.961-0.096,1.985-0.384,3.074-0.864c1.088-0.48,2.329-1.225,3.722-2.234
		c1.393-1.008,3.13-2.425,5.211-4.25c0.544-0.448,1.088-0.673,1.633-0.673c0.64,0,1.184,0.224,1.633,0.673
		c0.448,0.449,0.673,0.992,0.673,1.632c0,0.353-0.088,0.689-0.264,1.009c-0.176,0.32-0.392,0.593-0.648,0.817
		c-1.761,1.537-3.378,2.857-4.851,3.962c-1.473,1.104-2.857,2.001-4.154,2.689c-1.297,0.689-2.53,1.193-3.698,1.513
		c-1.169,0.32-2.298,0.48-3.386,0.48v5.859C206.442,28.167,206.217,28.711,205.769,29.159z"/>
	<path fill="#FFFFFF" d="M264.025,9.564c0.448-0.448,0.992-0.673,1.633-0.673c0.64,0,1.184,0.224,1.633,0.673
		c0.448,0.449,0.673,0.992,0.673,1.632v13.976c0,1.313-0.441,2.418-1.321,3.314c-0.881,0.896-1.978,1.345-3.29,1.345
		c-0.449,0-0.888-0.064-1.321-0.192c-0.432-0.127-0.825-0.304-1.177-0.528l-21.996-13.447c-0.609-0.352-1.113-0.632-1.513-0.841
		c-0.401-0.208-0.729-0.312-0.984-0.312c-0.48,0-0.785,0.305-0.912,0.912c-0.128,0.609-0.192,1.489-0.192,2.641v9.461
		c0,0.641-0.224,1.185-0.672,1.633c-0.449,0.449-0.993,0.673-1.633,0.673c-0.641,0-1.185-0.224-1.633-0.673
		c-0.449-0.448-0.672-0.992-0.672-1.633V13.55c0-1.313,0.44-2.417,1.321-3.314c0.88-0.896,1.976-1.345,3.289-1.345
		c0.448,0,0.888,0.064,1.321,0.192c0.432,0.128,0.824,0.305,1.177,0.529L259.75,23.06c0.608,0.353,1.112,0.633,1.513,0.841
		c0.4,0.208,0.728,0.312,0.984,0.312c0.48,0,0.785-0.304,0.912-0.912c0.128-0.608,0.192-1.489,0.192-2.642v-9.461
		C263.353,10.557,263.576,10.013,264.025,9.564z"/>
	<path fill="#FFFFFF" d="M275.167,19.361c0-1.216,0.199-2.441,0.6-3.674c0.4-1.232,0.984-2.354,1.753-3.362
		c0.769-1.008,1.697-1.832,2.786-2.474c1.088-0.64,2.321-0.96,3.698-0.96h27.999c0.641,0,1.184,0.224,1.633,0.673
		c0.448,0.449,0.673,0.992,0.673,1.632c0,0.641-0.224,1.185-0.673,1.633c-0.449,0.449-0.992,0.673-1.633,0.673h-26.99
		c-1.121,0-2.026,0.2-2.714,0.6c-0.689,0.401-1.233,0.888-1.633,1.465c-0.4,0.576-0.672,1.209-0.816,1.897
		c-0.144,0.689-0.216,1.321-0.216,1.897c0,0.577,0.072,1.209,0.216,1.897c0.144,0.689,0.416,1.321,0.816,1.897
		c0.4,0.577,0.944,1.065,1.633,1.465c0.688,0.401,1.592,0.6,2.714,0.6h26.99c0.641,0,1.184,0.224,1.633,0.673
		c0.448,0.449,0.673,0.992,0.673,1.632c0,0.641-0.224,1.185-0.673,1.633c-0.449,0.449-0.992,0.673-1.633,0.673h-28.479
		c-1.313,0-2.481-0.32-3.506-0.96c-1.025-0.64-1.897-1.465-2.617-2.473c-0.721-1.009-1.273-2.137-1.657-3.386
		C275.359,21.763,275.167,20.547,275.167,19.361z"/>
</g>
<g>
	<path fill="#FFFFFF" d="M19.194,59.468c0,0.141-0.023,0.258-0.069,0.352c-0.047,0.094-0.106,0.17-0.179,0.229
		s-0.153,0.1-0.242,0.123s-0.172,0.035-0.248,0.035h-0.318c-0.17,0-0.325-0.02-0.465-0.059c-0.141-0.039-0.276-0.107-0.408-0.205
		s-0.263-0.229-0.395-0.393s-0.278-0.375-0.439-0.633l-5.809-9.469c-0.289-0.461-0.579-0.936-0.872-1.424s-0.571-0.963-0.835-1.424
		H8.902c0.009,0.57,0.013,1.154,0.013,1.752s0,1.182,0,1.752v9.82c0,0.047-0.013,0.09-0.038,0.129s-0.067,0.07-0.127,0.094
		s-0.139,0.043-0.235,0.059c-0.099,0.016-0.224,0.023-0.376,0.023c-0.145,0-0.268-0.008-0.369-0.023
		c-0.103-0.016-0.184-0.035-0.242-0.059c-0.06-0.023-0.103-0.055-0.128-0.094s-0.038-0.082-0.038-0.129V45.733
		c0-0.281,0.081-0.475,0.242-0.58s0.318-0.158,0.472-0.158h0.637c0.203,0,0.373,0.016,0.509,0.047s0.26,0.084,0.37,0.158
		s0.218,0.18,0.324,0.316s0.224,0.311,0.351,0.521l4.445,7.254c0.28,0.453,0.546,0.889,0.796,1.307
		c0.251,0.418,0.495,0.828,0.732,1.23c0.238,0.402,0.474,0.799,0.707,1.189s0.465,0.785,0.694,1.184h0.013
		c-0.009-0.656-0.013-1.34-0.013-2.051s0-1.395,0-2.051v-8.824c0-0.047,0.013-0.09,0.038-0.129s0.068-0.072,0.128-0.1
		c0.059-0.027,0.138-0.047,0.235-0.059s0.223-0.018,0.376-0.018c0.136,0,0.254,0.006,0.356,0.018
		c0.102,0.012,0.183,0.031,0.242,0.059c0.059,0.027,0.104,0.061,0.134,0.1c0.029,0.039,0.044,0.082,0.044,0.129V59.468z"/>
	<path fill="#FFFFFF" d="M34.042,54.077c0,0.281-0.081,0.475-0.242,0.58s-0.318,0.158-0.471,0.158H25.47
		c0,0.656,0.07,1.25,0.21,1.781c0.141,0.531,0.372,0.986,0.694,1.365s0.743,0.67,1.261,0.873c0.519,0.203,1.155,0.305,1.911,0.305
		c0.535,0,1.015-0.043,1.439-0.129c0.424-0.086,0.791-0.182,1.102-0.287c0.31-0.105,0.564-0.201,0.765-0.287
		c0.199-0.086,0.341-0.129,0.426-0.129c0.052,0,0.098,0.012,0.141,0.035c0.042,0.023,0.076,0.061,0.102,0.111
		s0.045,0.115,0.058,0.193s0.02,0.176,0.02,0.293c0,0.055-0.005,0.107-0.013,0.158c-0.009,0.051-0.02,0.098-0.032,0.141
		s-0.032,0.084-0.058,0.123s-0.06,0.078-0.102,0.117c-0.043,0.039-0.174,0.107-0.395,0.205c-0.222,0.098-0.51,0.195-0.866,0.293
		c-0.357,0.098-0.771,0.186-1.242,0.264c-0.472,0.078-0.979,0.117-1.522,0.117c-0.892,0-1.681-0.123-2.369-0.369
		c-0.688-0.246-1.266-0.609-1.732-1.09s-0.821-1.076-1.063-1.787s-0.363-1.535-0.363-2.473c0-0.898,0.126-1.703,0.376-2.414
		c0.251-0.711,0.609-1.314,1.076-1.811c0.468-0.496,1.03-0.875,1.688-1.137c0.657-0.262,1.39-0.393,2.197-0.393
		c0.866,0,1.604,0.133,2.216,0.398s1.114,0.623,1.51,1.072c0.395,0.449,0.684,0.971,0.866,1.564s0.273,1.219,0.273,1.875V54.077z
		 M32.476,53.667c0.025-1.125-0.255-2.004-0.841-2.637s-1.439-0.949-2.561-0.949c-0.577,0-1.085,0.1-1.521,0.299
		c-0.438,0.199-0.808,0.463-1.108,0.791c-0.302,0.328-0.533,0.709-0.694,1.143s-0.255,0.885-0.28,1.354H32.476z"/>
	<path fill="#FFFFFF" d="M46.113,59.702c0.068,0.094,0.104,0.174,0.108,0.24c0.005,0.066-0.023,0.121-0.082,0.164
		c-0.06,0.043-0.151,0.074-0.274,0.094s-0.278,0.029-0.465,0.029c-0.179,0-0.32-0.006-0.427-0.018s-0.191-0.029-0.255-0.053
		s-0.114-0.055-0.152-0.094s-0.074-0.082-0.108-0.129l-3.108-4.43l-3.095,4.43c-0.034,0.047-0.07,0.09-0.108,0.129
		s-0.092,0.07-0.159,0.094c-0.068,0.023-0.155,0.041-0.261,0.053c-0.106,0.012-0.244,0.018-0.414,0.018
		c-0.179,0-0.327-0.01-0.446-0.029s-0.206-0.051-0.261-0.094c-0.056-0.043-0.081-0.098-0.076-0.164
		c0.004-0.066,0.044-0.146,0.12-0.24l3.796-5.145l-3.617-5.027c-0.068-0.094-0.104-0.174-0.108-0.24s0.025-0.121,0.089-0.164
		c0.064-0.043,0.159-0.072,0.287-0.088c0.127-0.016,0.284-0.023,0.472-0.023c0.178,0,0.32,0.006,0.426,0.018
		c0.106,0.012,0.189,0.029,0.249,0.053s0.105,0.053,0.14,0.088s0.068,0.076,0.103,0.123l2.93,4.148l3.006-4.148
		c0.033-0.047,0.067-0.088,0.102-0.123s0.078-0.064,0.134-0.088c0.055-0.023,0.132-0.041,0.229-0.053s0.231-0.018,0.401-0.018
		c0.178,0,0.329,0.008,0.452,0.023s0.214,0.043,0.273,0.082s0.087,0.092,0.083,0.158c-0.005,0.066-0.045,0.15-0.121,0.252
		l-3.643,4.98L46.113,59.702z"/>
	<path fill="#FFFFFF" d="M55.573,59.292c0,0.164-0.015,0.297-0.045,0.398c-0.029,0.102-0.076,0.182-0.14,0.24
		s-0.157,0.113-0.28,0.164s-0.266,0.094-0.427,0.129s-0.331,0.063-0.51,0.082c-0.178,0.02-0.353,0.029-0.521,0.029
		c-0.569,0-1.054-0.07-1.452-0.211c-0.399-0.141-0.727-0.354-0.981-0.639s-0.439-0.646-0.554-1.084
		c-0.115-0.438-0.172-0.953-0.172-1.547v-6.598h-1.72c-0.119,0-0.212-0.049-0.28-0.146s-0.102-0.244-0.102-0.439
		c0-0.102,0.008-0.189,0.025-0.264c0.017-0.074,0.042-0.137,0.076-0.188s0.074-0.088,0.121-0.111s0.1-0.035,0.159-0.035h1.72v-2.602
		c0-0.047,0.011-0.09,0.031-0.129c0.021-0.039,0.062-0.072,0.121-0.1s0.139-0.047,0.236-0.059c0.097-0.012,0.218-0.018,0.362-0.018
		c0.153,0,0.278,0.006,0.376,0.018s0.174,0.031,0.229,0.059c0.055,0.027,0.096,0.061,0.121,0.1s0.038,0.082,0.038,0.129v2.602h3.185
		c0.059,0,0.112,0.012,0.159,0.035c0.046,0.023,0.087,0.061,0.121,0.111c0.033,0.051,0.059,0.113,0.076,0.188
		c0.017,0.074,0.025,0.162,0.025,0.264c0,0.195-0.036,0.342-0.108,0.439s-0.163,0.146-0.273,0.146h-3.185v6.41
		c0,0.805,0.125,1.418,0.376,1.84c0.25,0.422,0.707,0.633,1.369,0.633c0.204,0,0.389-0.02,0.554-0.059
		c0.166-0.039,0.313-0.082,0.439-0.129c0.128-0.047,0.236-0.09,0.325-0.129s0.167-0.059,0.235-0.059
		c0.043,0,0.081,0.008,0.115,0.023c0.033,0.016,0.061,0.045,0.082,0.088s0.038,0.098,0.051,0.164
		C55.567,59.106,55.573,59.19,55.573,59.292z"/>
	<path fill="#FFFFFF" d="M83.817,59.925c0,0.047-0.014,0.09-0.039,0.129s-0.069,0.07-0.134,0.094
		c-0.063,0.023-0.145,0.043-0.241,0.059c-0.098,0.016-0.224,0.023-0.376,0.023c-0.136,0-0.255-0.008-0.356-0.023
		c-0.103-0.016-0.183-0.035-0.242-0.059s-0.103-0.055-0.128-0.094s-0.038-0.082-0.038-0.129V46.249h-0.025l-6.483,13.758
		c-0.017,0.031-0.042,0.061-0.076,0.088s-0.081,0.051-0.141,0.07c-0.059,0.02-0.129,0.035-0.21,0.047
		c-0.08,0.012-0.176,0.018-0.286,0.018c-0.119,0-0.221-0.006-0.306-0.018s-0.155-0.027-0.21-0.047
		c-0.056-0.02-0.101-0.043-0.134-0.07c-0.034-0.027-0.056-0.057-0.064-0.088l-6.165-13.758h-0.013v13.676
		c0,0.047-0.013,0.09-0.038,0.129s-0.069,0.07-0.134,0.094c-0.063,0.023-0.145,0.043-0.241,0.059
		c-0.099,0.016-0.228,0.023-0.389,0.023c-0.145,0-0.266-0.008-0.363-0.023s-0.177-0.035-0.235-0.059
		c-0.06-0.023-0.101-0.055-0.121-0.094c-0.021-0.039-0.032-0.082-0.032-0.129V45.733c0-0.281,0.081-0.475,0.242-0.58
		s0.318-0.158,0.472-0.158h0.84c0.213,0,0.399,0.021,0.561,0.064s0.304,0.105,0.427,0.188s0.228,0.182,0.313,0.299
		s0.161,0.25,0.229,0.398l5.438,12.047h0.063l5.668-12c0.085-0.188,0.177-0.346,0.274-0.475s0.199-0.232,0.306-0.311
		s0.221-0.133,0.344-0.164s0.257-0.047,0.401-0.047h0.93c0.076,0,0.157,0.012,0.242,0.035s0.161,0.064,0.229,0.123
		c0.067,0.059,0.125,0.135,0.172,0.229c0.046,0.094,0.07,0.211,0.07,0.352V59.925z"/>
	<path fill="#FFFFFF" d="M99.468,54.511c0,0.844-0.119,1.621-0.356,2.332c-0.238,0.711-0.593,1.328-1.064,1.852
		c-0.471,0.523-1.059,0.932-1.764,1.225s-1.524,0.439-2.458,0.439c-0.9,0-1.688-0.131-2.363-0.393s-1.24-0.637-1.694-1.125
		s-0.794-1.08-1.019-1.775c-0.226-0.695-0.338-1.48-0.338-2.355c0-0.844,0.117-1.621,0.351-2.332s0.586-1.326,1.058-1.846
		c0.471-0.52,1.059-0.924,1.764-1.213s1.528-0.434,2.471-0.434c0.9,0,1.688,0.129,2.363,0.387s1.237,0.631,1.688,1.119
		s0.79,1.08,1.02,1.775C99.353,52.862,99.468,53.643,99.468,54.511z M97.862,54.64c0-0.602-0.063-1.176-0.19-1.723
		c-0.128-0.547-0.34-1.029-0.637-1.447c-0.298-0.418-0.697-0.75-1.198-0.996s-1.125-0.369-1.872-0.369
		c-0.688,0-1.282,0.113-1.783,0.34s-0.91,0.541-1.229,0.943c-0.318,0.402-0.554,0.877-0.706,1.424
		c-0.153,0.547-0.229,1.137-0.229,1.77c0,0.609,0.063,1.189,0.19,1.74c0.128,0.551,0.34,1.033,0.638,1.447
		c0.297,0.414,0.695,0.742,1.197,0.984c0.501,0.242,1.125,0.363,1.872,0.363c0.688,0,1.282-0.113,1.783-0.34
		s0.911-0.539,1.229-0.938s0.554-0.871,0.707-1.418C97.786,55.874,97.862,55.28,97.862,54.64z"/>
	<path fill="#FFFFFF" d="M113.844,54.487c0,0.906-0.106,1.721-0.318,2.443s-0.528,1.338-0.948,1.846
		c-0.421,0.508-0.938,0.898-1.555,1.172c-0.615,0.273-1.322,0.41-2.12,0.41c-0.357,0-0.687-0.033-0.987-0.1
		c-0.302-0.066-0.597-0.174-0.886-0.322c-0.288-0.148-0.584-0.336-0.885-0.563c-0.302-0.227-0.627-0.5-0.975-0.82v1.371
		c0,0.055-0.013,0.102-0.038,0.141s-0.068,0.07-0.128,0.094s-0.132,0.041-0.216,0.053c-0.085,0.012-0.191,0.018-0.318,0.018
		c-0.128,0-0.236-0.006-0.325-0.018s-0.161-0.029-0.217-0.053c-0.055-0.023-0.094-0.055-0.114-0.094
		c-0.021-0.039-0.032-0.086-0.032-0.141V44.128c0-0.047,0.011-0.09,0.032-0.129c0.021-0.039,0.062-0.072,0.121-0.1
		c0.059-0.027,0.138-0.047,0.235-0.059s0.219-0.018,0.363-0.018c0.152,0,0.277,0.006,0.376,0.018
		c0.097,0.012,0.174,0.031,0.229,0.059c0.056,0.027,0.096,0.061,0.121,0.1s0.038,0.082,0.038,0.129v6.621
		c0.365-0.352,0.714-0.646,1.045-0.885s0.653-0.43,0.968-0.574s0.626-0.248,0.937-0.311c0.31-0.063,0.63-0.094,0.962-0.094
		c0.832,0,1.543,0.148,2.133,0.445c0.591,0.297,1.07,0.699,1.439,1.207s0.639,1.102,0.809,1.781S113.844,53.722,113.844,54.487z
		 M112.252,54.71c0-0.594-0.051-1.168-0.153-1.723c-0.102-0.555-0.275-1.047-0.521-1.477c-0.247-0.43-0.573-0.775-0.981-1.037
		c-0.407-0.262-0.917-0.393-1.528-0.393c-0.297,0-0.592,0.039-0.885,0.117s-0.593,0.207-0.898,0.387s-0.622,0.412-0.949,0.697
		c-0.326,0.285-0.673,0.639-1.038,1.061v4.617c0.638,0.711,1.251,1.256,1.841,1.635s1.204,0.568,1.841,0.568
		c0.586,0,1.087-0.131,1.503-0.393s0.756-0.604,1.019-1.025c0.264-0.422,0.454-0.898,0.573-1.43S112.252,55.249,112.252,54.71z"/>
	<path fill="#FFFFFF" d="M119.991,45.745c0,0.375-0.072,0.629-0.217,0.762s-0.407,0.199-0.789,0.199
		c-0.374,0-0.631-0.064-0.771-0.193c-0.141-0.129-0.211-0.381-0.211-0.756s0.072-0.629,0.217-0.762s0.408-0.199,0.79-0.199
		c0.373,0,0.63,0.064,0.771,0.193C119.921,45.118,119.991,45.37,119.991,45.745z M119.762,59.925c0,0.047-0.013,0.09-0.038,0.129
		s-0.065,0.07-0.121,0.094c-0.055,0.023-0.132,0.043-0.229,0.059c-0.099,0.016-0.224,0.023-0.376,0.023
		c-0.145,0-0.266-0.008-0.363-0.023s-0.177-0.035-0.235-0.059c-0.06-0.023-0.101-0.055-0.121-0.094
		c-0.021-0.039-0.032-0.082-0.032-0.129V49.319c0-0.047,0.011-0.09,0.032-0.129c0.021-0.039,0.062-0.072,0.121-0.1
		c0.059-0.027,0.138-0.047,0.235-0.059s0.219-0.018,0.363-0.018c0.152,0,0.277,0.006,0.376,0.018
		c0.097,0.012,0.174,0.031,0.229,0.059c0.056,0.027,0.096,0.061,0.121,0.1s0.038,0.082,0.038,0.129V59.925z"/>
	<path fill="#FFFFFF" d="M126.433,59.925c0,0.047-0.013,0.09-0.038,0.129s-0.065,0.07-0.121,0.094
		c-0.055,0.023-0.132,0.043-0.229,0.059c-0.099,0.016-0.224,0.023-0.376,0.023c-0.145,0-0.266-0.008-0.363-0.023
		s-0.177-0.035-0.235-0.059c-0.06-0.023-0.101-0.055-0.121-0.094c-0.021-0.039-0.032-0.082-0.032-0.129V44.128
		c0-0.047,0.011-0.09,0.032-0.129c0.021-0.039,0.062-0.072,0.121-0.1c0.059-0.027,0.138-0.047,0.235-0.059s0.219-0.018,0.363-0.018
		c0.152,0,0.277,0.006,0.376,0.018c0.097,0.012,0.174,0.031,0.229,0.059c0.056,0.027,0.096,0.061,0.121,0.1s0.038,0.082,0.038,0.129
		V59.925z"/>
	<path fill="#FFFFFF" d="M133.333,45.745c0,0.375-0.072,0.629-0.217,0.762s-0.407,0.199-0.789,0.199
		c-0.374,0-0.631-0.064-0.771-0.193c-0.141-0.129-0.211-0.381-0.211-0.756s0.072-0.629,0.217-0.762s0.408-0.199,0.79-0.199
		c0.373,0,0.63,0.064,0.771,0.193C133.263,45.118,133.333,45.37,133.333,45.745z M133.104,59.925c0,0.047-0.013,0.09-0.038,0.129
		s-0.065,0.07-0.121,0.094c-0.055,0.023-0.132,0.043-0.229,0.059c-0.099,0.016-0.224,0.023-0.376,0.023
		c-0.145,0-0.266-0.008-0.363-0.023s-0.177-0.035-0.235-0.059c-0.06-0.023-0.101-0.055-0.121-0.094
		c-0.021-0.039-0.032-0.082-0.032-0.129V49.319c0-0.047,0.011-0.09,0.032-0.129c0.021-0.039,0.062-0.072,0.121-0.1
		c0.059-0.027,0.138-0.047,0.235-0.059s0.219-0.018,0.363-0.018c0.152,0,0.277,0.006,0.376,0.018
		c0.097,0.012,0.174,0.031,0.229,0.059c0.056,0.027,0.096,0.061,0.121,0.1s0.038,0.082,0.038,0.129V59.925z"/>
	<path fill="#FFFFFF" d="M143.813,59.292c0,0.164-0.015,0.297-0.045,0.398c-0.029,0.102-0.076,0.182-0.14,0.24
		s-0.157,0.113-0.28,0.164s-0.266,0.094-0.427,0.129s-0.331,0.063-0.51,0.082c-0.178,0.02-0.353,0.029-0.521,0.029
		c-0.569,0-1.054-0.07-1.452-0.211c-0.399-0.141-0.727-0.354-0.981-0.639s-0.439-0.646-0.554-1.084
		c-0.115-0.438-0.172-0.953-0.172-1.547v-6.598h-1.72c-0.119,0-0.212-0.049-0.28-0.146s-0.102-0.244-0.102-0.439
		c0-0.102,0.008-0.189,0.025-0.264c0.017-0.074,0.042-0.137,0.076-0.188s0.074-0.088,0.121-0.111s0.1-0.035,0.159-0.035h1.72v-2.602
		c0-0.047,0.011-0.09,0.031-0.129c0.021-0.039,0.062-0.072,0.121-0.1s0.139-0.047,0.236-0.059c0.097-0.012,0.218-0.018,0.362-0.018
		c0.153,0,0.278,0.006,0.376,0.018s0.174,0.031,0.229,0.059c0.055,0.027,0.096,0.061,0.121,0.1s0.038,0.082,0.038,0.129v2.602h3.185
		c0.059,0,0.112,0.012,0.159,0.035c0.046,0.023,0.087,0.061,0.121,0.111c0.033,0.051,0.059,0.113,0.076,0.188
		c0.017,0.074,0.025,0.162,0.025,0.264c0,0.195-0.036,0.342-0.108,0.439s-0.163,0.146-0.273,0.146h-3.185v6.41
		c0,0.805,0.125,1.418,0.376,1.84c0.25,0.422,0.707,0.633,1.369,0.633c0.204,0,0.389-0.02,0.554-0.059
		c0.166-0.039,0.313-0.082,0.439-0.129c0.128-0.047,0.236-0.09,0.325-0.129s0.167-0.059,0.235-0.059
		c0.043,0,0.081,0.008,0.115,0.023c0.033,0.016,0.061,0.045,0.082,0.088s0.038,0.098,0.051,0.164
		C143.807,59.106,143.813,59.19,143.813,59.292z"/>
	<path fill="#FFFFFF" d="M152.228,60.159l-1.604,3.973c-0.043,0.086-0.132,0.158-0.268,0.217s-0.353,0.088-0.649,0.088
		c-0.153,0-0.28-0.008-0.382-0.023c-0.103-0.016-0.181-0.045-0.236-0.088c-0.055-0.043-0.087-0.098-0.096-0.164
		c-0.008-0.066,0.009-0.146,0.052-0.24l1.63-3.762c-0.068-0.023-0.127-0.063-0.178-0.117c-0.052-0.055-0.085-0.109-0.103-0.164
		l-4.19-10.348c-0.043-0.109-0.063-0.197-0.063-0.264s0.023-0.119,0.07-0.158c0.046-0.039,0.122-0.064,0.229-0.076
		s0.249-0.018,0.427-0.018c0.187,0,0.336,0.006,0.446,0.018s0.197,0.029,0.261,0.053s0.11,0.055,0.141,0.094
		c0.029,0.039,0.057,0.086,0.082,0.141l3.605,9.258h0.051l3.541-9.258c0.042-0.109,0.1-0.182,0.172-0.217s0.167-0.059,0.286-0.07
		s0.264-0.018,0.434-0.018c0.161,0,0.295,0.008,0.401,0.023c0.105,0.016,0.185,0.043,0.235,0.082s0.076,0.092,0.076,0.158
		s-0.021,0.15-0.063,0.252L152.228,60.159z"/>
	<path fill="#FFFFFF" d="M184.472,59.925c0,0.047-0.014,0.09-0.039,0.129s-0.069,0.07-0.134,0.094
		c-0.063,0.023-0.145,0.043-0.241,0.059c-0.098,0.016-0.224,0.023-0.376,0.023c-0.136,0-0.255-0.008-0.356-0.023
		c-0.103-0.016-0.183-0.035-0.242-0.059s-0.103-0.055-0.128-0.094s-0.038-0.082-0.038-0.129V46.249h-0.025l-6.483,13.758
		c-0.017,0.031-0.042,0.061-0.076,0.088s-0.081,0.051-0.141,0.07c-0.059,0.02-0.129,0.035-0.21,0.047
		c-0.08,0.012-0.176,0.018-0.286,0.018c-0.119,0-0.221-0.006-0.306-0.018s-0.155-0.027-0.21-0.047
		c-0.056-0.02-0.101-0.043-0.134-0.07c-0.034-0.027-0.056-0.057-0.064-0.088l-6.165-13.758h-0.013v13.676
		c0,0.047-0.013,0.09-0.038,0.129s-0.069,0.07-0.134,0.094c-0.063,0.023-0.145,0.043-0.241,0.059
		c-0.099,0.016-0.228,0.023-0.389,0.023c-0.145,0-0.266-0.008-0.363-0.023s-0.177-0.035-0.235-0.059
		c-0.06-0.023-0.101-0.055-0.121-0.094c-0.021-0.039-0.032-0.082-0.032-0.129V45.733c0-0.281,0.081-0.475,0.242-0.58
		s0.318-0.158,0.472-0.158h0.84c0.213,0,0.399,0.021,0.561,0.064s0.304,0.105,0.427,0.188s0.228,0.182,0.313,0.299
		s0.161,0.25,0.229,0.398l5.438,12.047h0.063l5.668-12c0.085-0.188,0.177-0.346,0.274-0.475s0.199-0.232,0.306-0.311
		s0.221-0.133,0.344-0.164s0.257-0.047,0.401-0.047h0.93c0.076,0,0.157,0.012,0.242,0.035s0.161,0.064,0.229,0.123
		c0.067,0.059,0.125,0.135,0.172,0.229c0.046,0.094,0.07,0.211,0.07,0.352V59.925z"/>
	<path fill="#FFFFFF" d="M197.995,59.925c0,0.078-0.028,0.139-0.083,0.182c-0.056,0.043-0.128,0.074-0.217,0.094
		s-0.21,0.029-0.363,0.029c-0.145,0-0.268-0.01-0.369-0.029s-0.181-0.051-0.235-0.094c-0.056-0.043-0.083-0.104-0.083-0.182v-1.184
		c-0.518,0.516-1.089,0.914-1.713,1.195s-1.272,0.422-1.942,0.422c-0.604,0-1.145-0.072-1.624-0.217
		c-0.48-0.145-0.886-0.352-1.217-0.621s-0.586-0.596-0.765-0.979c-0.178-0.383-0.268-0.813-0.268-1.289
		c0-0.586,0.132-1.096,0.396-1.529c0.263-0.434,0.637-0.795,1.121-1.084c0.483-0.289,1.065-0.506,1.745-0.65
		c0.679-0.145,1.435-0.217,2.267-0.217h1.834v-0.914c0-0.453-0.051-0.854-0.152-1.201s-0.268-0.639-0.497-0.873
		s-0.526-0.41-0.892-0.527s-0.811-0.176-1.337-0.176c-0.51,0-0.969,0.057-1.376,0.17s-0.765,0.24-1.07,0.381
		s-0.558,0.268-0.758,0.381c-0.199,0.113-0.342,0.17-0.427,0.17c-0.051,0-0.098-0.008-0.14-0.023
		c-0.043-0.016-0.079-0.045-0.108-0.088c-0.03-0.043-0.051-0.098-0.063-0.164s-0.02-0.146-0.02-0.24
		c0-0.164,0.013-0.295,0.038-0.393s0.092-0.195,0.198-0.293c0.105-0.098,0.295-0.213,0.566-0.346s0.584-0.256,0.937-0.369
		c0.352-0.113,0.732-0.205,1.14-0.275s0.815-0.105,1.223-0.105c0.79,0,1.456,0.088,2,0.264c0.543,0.176,0.982,0.428,1.318,0.756
		c0.335,0.328,0.575,0.732,0.72,1.213s0.217,1.025,0.217,1.635V59.925z M196.479,54.921h-2.102c-0.611,0-1.146,0.051-1.604,0.152
		c-0.459,0.102-0.841,0.25-1.146,0.445s-0.533,0.43-0.682,0.703s-0.223,0.586-0.223,0.938c0,0.609,0.21,1.096,0.631,1.459
		c0.42,0.363,1.012,0.545,1.776,0.545c0.603,0,1.166-0.143,1.688-0.428c0.522-0.285,1.076-0.725,1.662-1.318V54.921z"/>
	<path fill="#FFFFFF" d="M212.461,59.925c0,0.047-0.013,0.09-0.038,0.129s-0.066,0.07-0.121,0.094
		c-0.056,0.023-0.132,0.043-0.229,0.059s-0.219,0.023-0.363,0.023c-0.152,0-0.278-0.008-0.375-0.023
		c-0.098-0.016-0.175-0.035-0.229-0.059c-0.056-0.023-0.096-0.055-0.121-0.094s-0.038-0.082-0.038-0.129v-6.293
		c0-0.656-0.056-1.189-0.166-1.6s-0.275-0.762-0.496-1.055c-0.222-0.293-0.504-0.52-0.848-0.68s-0.745-0.24-1.203-0.24
		c-0.586,0-1.172,0.191-1.758,0.574s-1.202,0.945-1.848,1.688v7.605c0,0.047-0.013,0.09-0.038,0.129s-0.065,0.07-0.121,0.094
		c-0.055,0.023-0.132,0.043-0.229,0.059c-0.099,0.016-0.224,0.023-0.376,0.023c-0.145,0-0.266-0.008-0.363-0.023
		s-0.177-0.035-0.235-0.059c-0.06-0.023-0.101-0.055-0.121-0.094c-0.021-0.039-0.032-0.082-0.032-0.129V49.319
		c0-0.047,0.011-0.09,0.032-0.129c0.021-0.039,0.062-0.072,0.121-0.1c0.059-0.027,0.134-0.047,0.223-0.059s0.206-0.018,0.351-0.018
		c0.144,0,0.263,0.006,0.356,0.018c0.093,0.012,0.165,0.031,0.217,0.059c0.051,0.027,0.087,0.061,0.107,0.1
		c0.021,0.039,0.032,0.082,0.032,0.129v1.5c0.662-0.68,1.313-1.172,1.949-1.477s1.27-0.457,1.897-0.457
		c0.756,0,1.393,0.117,1.911,0.352c0.518,0.234,0.936,0.551,1.254,0.949s0.548,0.863,0.688,1.395c0.14,0.531,0.21,1.172,0.21,1.922
		V59.925z"/>
	<path fill="#FFFFFF" d="M225.653,59.925c0,0.078-0.028,0.139-0.083,0.182c-0.056,0.043-0.128,0.074-0.217,0.094
		s-0.21,0.029-0.363,0.029c-0.145,0-0.268-0.01-0.369-0.029s-0.181-0.051-0.235-0.094c-0.056-0.043-0.083-0.104-0.083-0.182v-1.184
		c-0.518,0.516-1.089,0.914-1.713,1.195s-1.272,0.422-1.942,0.422c-0.604,0-1.145-0.072-1.624-0.217
		c-0.48-0.145-0.886-0.352-1.217-0.621s-0.586-0.596-0.765-0.979c-0.178-0.383-0.268-0.813-0.268-1.289
		c0-0.586,0.132-1.096,0.396-1.529c0.263-0.434,0.637-0.795,1.121-1.084c0.483-0.289,1.065-0.506,1.745-0.65
		c0.679-0.145,1.435-0.217,2.267-0.217h1.834v-0.914c0-0.453-0.051-0.854-0.152-1.201s-0.268-0.639-0.497-0.873
		s-0.526-0.41-0.892-0.527s-0.811-0.176-1.337-0.176c-0.51,0-0.969,0.057-1.376,0.17s-0.765,0.24-1.07,0.381
		s-0.558,0.268-0.758,0.381c-0.199,0.113-0.342,0.17-0.427,0.17c-0.051,0-0.098-0.008-0.14-0.023
		c-0.043-0.016-0.079-0.045-0.108-0.088c-0.03-0.043-0.051-0.098-0.063-0.164s-0.02-0.146-0.02-0.24
		c0-0.164,0.013-0.295,0.038-0.393s0.092-0.195,0.198-0.293c0.105-0.098,0.295-0.213,0.566-0.346s0.584-0.256,0.937-0.369
		c0.352-0.113,0.732-0.205,1.14-0.275s0.815-0.105,1.223-0.105c0.79,0,1.456,0.088,2,0.264c0.543,0.176,0.982,0.428,1.318,0.756
		c0.335,0.328,0.575,0.732,0.72,1.213s0.217,1.025,0.217,1.635V59.925z M224.137,54.921h-2.102c-0.611,0-1.146,0.051-1.604,0.152
		c-0.459,0.102-0.841,0.25-1.146,0.445s-0.533,0.43-0.682,0.703s-0.223,0.586-0.223,0.938c0,0.609,0.21,1.096,0.631,1.459
		c0.42,0.363,1.012,0.545,1.776,0.545c0.603,0,1.166-0.143,1.688-0.428c0.522-0.285,1.076-0.725,1.662-1.318V54.921z"/>
	<path fill="#FFFFFF" d="M240.004,49.671c0,0.219-0.038,0.371-0.114,0.457s-0.174,0.129-0.293,0.129h-1.821
		c0.356,0.336,0.604,0.701,0.745,1.096c0.14,0.395,0.21,0.811,0.21,1.248c0,0.602-0.104,1.137-0.312,1.605
		c-0.209,0.469-0.504,0.865-0.886,1.189s-0.836,0.572-1.362,0.744c-0.527,0.172-1.108,0.258-1.745,0.258
		c-0.519,0-1.011-0.066-1.478-0.199c-0.468-0.133-0.833-0.297-1.096-0.492c-0.17,0.156-0.311,0.336-0.421,0.539
		s-0.165,0.438-0.165,0.703c0,0.297,0.154,0.547,0.465,0.75c0.31,0.203,0.711,0.313,1.204,0.328l3.12,0.117
		c0.526,0.016,1.021,0.082,1.484,0.199c0.462,0.117,0.868,0.291,1.216,0.521c0.349,0.23,0.624,0.514,0.828,0.85
		s0.306,0.73,0.306,1.184c0,0.469-0.104,0.918-0.312,1.348c-0.209,0.43-0.531,0.807-0.969,1.131s-0.995,0.582-1.675,0.773
		c-0.68,0.191-1.49,0.287-2.433,0.287c-0.9,0-1.667-0.072-2.299-0.217c-0.633-0.145-1.151-0.344-1.555-0.598
		s-0.696-0.553-0.879-0.896s-0.273-0.715-0.273-1.113c0-0.273,0.034-0.531,0.102-0.773c0.068-0.242,0.172-0.473,0.313-0.691
		c0.14-0.219,0.313-0.43,0.522-0.633c0.208-0.203,0.447-0.41,0.72-0.621c-0.434-0.203-0.752-0.449-0.956-0.738
		c-0.203-0.289-0.306-0.598-0.306-0.926c0-0.484,0.103-0.912,0.306-1.283c0.204-0.371,0.45-0.705,0.739-1.002
		c-0.247-0.297-0.438-0.621-0.573-0.973s-0.204-0.773-0.204-1.266c0-0.594,0.106-1.127,0.318-1.6s0.508-0.873,0.886-1.201
		s0.83-0.58,1.356-0.756s1.104-0.264,1.732-0.264c0.331,0,0.643,0.018,0.936,0.053s0.563,0.08,0.81,0.135h3.4
		c0.145,0,0.248,0.051,0.313,0.152C239.973,49.327,240.004,49.476,240.004,49.671z M238.374,60.979c0-0.516-0.228-0.91-0.682-1.184
		s-1.063-0.422-1.828-0.445l-3.35-0.105c-0.306,0.219-0.556,0.426-0.751,0.621c-0.196,0.195-0.351,0.385-0.466,0.568
		c-0.114,0.184-0.192,0.363-0.235,0.539c-0.042,0.176-0.063,0.354-0.063,0.533c0,0.578,0.316,1.016,0.949,1.313
		c0.632,0.297,1.514,0.445,2.643,0.445c0.714,0,1.31-0.064,1.79-0.193c0.479-0.129,0.868-0.299,1.165-0.51s0.51-0.453,0.637-0.727
		C238.311,61.561,238.374,61.276,238.374,60.979z M237.164,52.624c0-0.805-0.24-1.434-0.72-1.887s-1.161-0.68-2.044-0.68
		c-0.45,0-0.846,0.07-1.186,0.211c-0.339,0.141-0.619,0.332-0.84,0.574c-0.222,0.242-0.387,0.523-0.497,0.844
		s-0.166,0.66-0.166,1.02c0,0.781,0.24,1.396,0.72,1.846s1.153,0.674,2.02,0.674c0.458,0,0.859-0.07,1.203-0.211
		s0.626-0.33,0.848-0.568c0.221-0.238,0.386-0.516,0.496-0.832S237.164,52.968,237.164,52.624z"/>
	<path fill="#FFFFFF" d="M253.119,54.077c0,0.281-0.081,0.475-0.242,0.58s-0.318,0.158-0.471,0.158h-7.859
		c0,0.656,0.07,1.25,0.21,1.781c0.141,0.531,0.372,0.986,0.694,1.365s0.743,0.67,1.261,0.873c0.519,0.203,1.155,0.305,1.911,0.305
		c0.535,0,1.015-0.043,1.439-0.129c0.424-0.086,0.791-0.182,1.102-0.287c0.31-0.105,0.564-0.201,0.765-0.287
		c0.199-0.086,0.341-0.129,0.426-0.129c0.052,0,0.098,0.012,0.141,0.035c0.042,0.023,0.076,0.061,0.102,0.111
		s0.045,0.115,0.058,0.193s0.02,0.176,0.02,0.293c0,0.055-0.005,0.107-0.013,0.158c-0.009,0.051-0.02,0.098-0.032,0.141
		s-0.032,0.084-0.058,0.123s-0.06,0.078-0.102,0.117c-0.043,0.039-0.174,0.107-0.395,0.205c-0.222,0.098-0.51,0.195-0.866,0.293
		c-0.357,0.098-0.771,0.186-1.242,0.264c-0.472,0.078-0.979,0.117-1.522,0.117c-0.892,0-1.681-0.123-2.369-0.369
		c-0.688-0.246-1.266-0.609-1.732-1.09s-0.821-1.076-1.063-1.787s-0.363-1.535-0.363-2.473c0-0.898,0.126-1.703,0.376-2.414
		c0.251-0.711,0.609-1.314,1.076-1.811c0.468-0.496,1.03-0.875,1.688-1.137c0.657-0.262,1.39-0.393,2.197-0.393
		c0.866,0,1.604,0.133,2.216,0.398s1.114,0.623,1.51,1.072c0.395,0.449,0.684,0.971,0.866,1.564s0.273,1.219,0.273,1.875V54.077z
		 M251.553,53.667c0.025-1.125-0.255-2.004-0.841-2.637s-1.439-0.949-2.561-0.949c-0.577,0-1.085,0.1-1.521,0.299
		c-0.438,0.199-0.808,0.463-1.108,0.791c-0.302,0.328-0.533,0.709-0.694,1.143s-0.255,0.885-0.28,1.354H251.553z"/>
	<path fill="#FFFFFF" d="M273.954,59.925c0,0.047-0.013,0.09-0.038,0.129s-0.066,0.07-0.121,0.094
		c-0.056,0.023-0.132,0.043-0.229,0.059s-0.219,0.023-0.363,0.023c-0.152,0-0.278-0.008-0.375-0.023
		c-0.098-0.016-0.177-0.035-0.236-0.059s-0.1-0.055-0.121-0.094c-0.021-0.039-0.031-0.082-0.031-0.129v-6.527
		c0-0.5-0.049-0.955-0.146-1.365s-0.251-0.762-0.459-1.055s-0.471-0.52-0.789-0.68c-0.319-0.16-0.694-0.24-1.128-0.24
		c-0.535,0-1.076,0.191-1.624,0.574s-1.148,0.945-1.802,1.688v7.605c0,0.047-0.013,0.09-0.039,0.129
		c-0.025,0.039-0.065,0.07-0.12,0.094c-0.056,0.023-0.132,0.043-0.229,0.059s-0.219,0.023-0.363,0.023s-0.266-0.008-0.363-0.023
		s-0.176-0.035-0.235-0.059s-0.1-0.055-0.121-0.094s-0.031-0.082-0.031-0.129v-6.527c0-0.5-0.052-0.955-0.153-1.365
		s-0.257-0.762-0.465-1.055s-0.472-0.52-0.79-0.68s-0.694-0.24-1.127-0.24c-0.535,0-1.076,0.191-1.624,0.574
		s-1.145,0.945-1.79,1.688v7.605c0,0.047-0.013,0.09-0.038,0.129s-0.065,0.07-0.121,0.094c-0.055,0.023-0.132,0.043-0.229,0.059
		c-0.099,0.016-0.224,0.023-0.376,0.023c-0.145,0-0.266-0.008-0.363-0.023s-0.177-0.035-0.235-0.059
		c-0.06-0.023-0.101-0.055-0.121-0.094c-0.021-0.039-0.032-0.082-0.032-0.129V49.319c0-0.047,0.011-0.09,0.032-0.129
		c0.021-0.039,0.062-0.072,0.121-0.1c0.059-0.027,0.134-0.047,0.223-0.059s0.206-0.018,0.351-0.018c0.144,0,0.263,0.006,0.356,0.018
		c0.093,0.012,0.165,0.031,0.217,0.059c0.051,0.027,0.087,0.061,0.107,0.1c0.021,0.039,0.032,0.082,0.032,0.129v1.5
		c0.662-0.68,1.291-1.172,1.885-1.477c0.595-0.305,1.185-0.457,1.771-0.457c0.484,0,0.915,0.053,1.293,0.158s0.712,0.254,1,0.445
		c0.289,0.191,0.535,0.42,0.739,0.686c0.203,0.266,0.369,0.559,0.496,0.879c0.399-0.406,0.775-0.748,1.128-1.025
		c0.352-0.277,0.688-0.5,1.006-0.668s0.626-0.289,0.924-0.363c0.297-0.074,0.59-0.111,0.879-0.111c0.722,0,1.331,0.117,1.827,0.352
		c0.497,0.234,0.896,0.551,1.198,0.949c0.301,0.398,0.518,0.863,0.649,1.395c0.131,0.531,0.197,1.094,0.197,1.688V59.925z"/>
	<path fill="#FFFFFF" d="M288.471,54.077c0,0.281-0.081,0.475-0.242,0.58s-0.318,0.158-0.471,0.158h-7.859
		c0,0.656,0.07,1.25,0.21,1.781c0.141,0.531,0.372,0.986,0.694,1.365s0.743,0.67,1.261,0.873c0.519,0.203,1.155,0.305,1.911,0.305
		c0.535,0,1.015-0.043,1.439-0.129c0.424-0.086,0.791-0.182,1.102-0.287c0.31-0.105,0.564-0.201,0.765-0.287
		c0.199-0.086,0.341-0.129,0.426-0.129c0.052,0,0.098,0.012,0.141,0.035c0.042,0.023,0.076,0.061,0.102,0.111
		s0.045,0.115,0.058,0.193s0.02,0.176,0.02,0.293c0,0.055-0.005,0.107-0.013,0.158c-0.009,0.051-0.02,0.098-0.032,0.141
		s-0.032,0.084-0.058,0.123s-0.06,0.078-0.102,0.117c-0.043,0.039-0.174,0.107-0.395,0.205c-0.222,0.098-0.51,0.195-0.866,0.293
		c-0.357,0.098-0.771,0.186-1.242,0.264c-0.472,0.078-0.979,0.117-1.522,0.117c-0.892,0-1.681-0.123-2.369-0.369
		c-0.688-0.246-1.266-0.609-1.732-1.09s-0.821-1.076-1.063-1.787s-0.363-1.535-0.363-2.473c0-0.898,0.126-1.703,0.376-2.414
		c0.251-0.711,0.609-1.314,1.076-1.811c0.468-0.496,1.03-0.875,1.688-1.137c0.657-0.262,1.39-0.393,2.197-0.393
		c0.866,0,1.604,0.133,2.216,0.398s1.114,0.623,1.51,1.072c0.395,0.449,0.684,0.971,0.866,1.564s0.273,1.219,0.273,1.875V54.077z
		 M286.904,53.667c0.025-1.125-0.255-2.004-0.841-2.637s-1.439-0.949-2.561-0.949c-0.577,0-1.085,0.1-1.521,0.299
		c-0.438,0.199-0.808,0.463-1.108,0.791c-0.302,0.328-0.533,0.709-0.694,1.143s-0.255,0.885-0.28,1.354H286.904z"/>
	<path fill="#FFFFFF" d="M302.224,59.925c0,0.047-0.013,0.09-0.038,0.129s-0.066,0.07-0.121,0.094
		c-0.056,0.023-0.132,0.043-0.229,0.059s-0.219,0.023-0.363,0.023c-0.152,0-0.278-0.008-0.375-0.023
		c-0.098-0.016-0.175-0.035-0.229-0.059c-0.056-0.023-0.096-0.055-0.121-0.094s-0.038-0.082-0.038-0.129v-6.293
		c0-0.656-0.056-1.189-0.166-1.6s-0.275-0.762-0.496-1.055c-0.222-0.293-0.504-0.52-0.848-0.68s-0.745-0.24-1.203-0.24
		c-0.586,0-1.172,0.191-1.758,0.574s-1.202,0.945-1.848,1.688v7.605c0,0.047-0.013,0.09-0.038,0.129s-0.065,0.07-0.121,0.094
		c-0.055,0.023-0.132,0.043-0.229,0.059c-0.099,0.016-0.224,0.023-0.376,0.023c-0.145,0-0.266-0.008-0.363-0.023
		s-0.177-0.035-0.235-0.059c-0.06-0.023-0.101-0.055-0.121-0.094c-0.021-0.039-0.032-0.082-0.032-0.129V49.319
		c0-0.047,0.011-0.09,0.032-0.129c0.021-0.039,0.062-0.072,0.121-0.1c0.059-0.027,0.134-0.047,0.223-0.059s0.206-0.018,0.351-0.018
		c0.144,0,0.263,0.006,0.356,0.018c0.093,0.012,0.165,0.031,0.217,0.059c0.051,0.027,0.087,0.061,0.107,0.1
		c0.021,0.039,0.032,0.082,0.032,0.129v1.5c0.662-0.68,1.313-1.172,1.949-1.477s1.27-0.457,1.897-0.457
		c0.756,0,1.393,0.117,1.911,0.352c0.518,0.234,0.936,0.551,1.254,0.949s0.548,0.863,0.688,1.395c0.14,0.531,0.21,1.172,0.21,1.922
		V59.925z"/>
	<path fill="#FFFFFF" d="M312.639,59.292c0,0.164-0.015,0.297-0.045,0.398c-0.029,0.102-0.076,0.182-0.14,0.24
		s-0.157,0.113-0.28,0.164s-0.266,0.094-0.427,0.129s-0.331,0.063-0.51,0.082c-0.178,0.02-0.353,0.029-0.521,0.029
		c-0.569,0-1.054-0.07-1.452-0.211c-0.399-0.141-0.727-0.354-0.981-0.639s-0.439-0.646-0.554-1.084
		c-0.115-0.438-0.172-0.953-0.172-1.547v-6.598h-1.72c-0.119,0-0.212-0.049-0.28-0.146s-0.102-0.244-0.102-0.439
		c0-0.102,0.008-0.189,0.025-0.264c0.017-0.074,0.042-0.137,0.076-0.188s0.074-0.088,0.121-0.111s0.1-0.035,0.159-0.035h1.72v-2.602
		c0-0.047,0.011-0.09,0.031-0.129c0.021-0.039,0.062-0.072,0.121-0.1s0.139-0.047,0.236-0.059c0.097-0.012,0.218-0.018,0.362-0.018
		c0.153,0,0.278,0.006,0.376,0.018s0.174,0.031,0.229,0.059c0.055,0.027,0.096,0.061,0.121,0.1s0.038,0.082,0.038,0.129v2.602h3.185
		c0.059,0,0.112,0.012,0.159,0.035c0.046,0.023,0.087,0.061,0.121,0.111c0.033,0.051,0.059,0.113,0.076,0.188
		c0.017,0.074,0.025,0.162,0.025,0.264c0,0.195-0.036,0.342-0.108,0.439s-0.163,0.146-0.273,0.146h-3.185v6.41
		c0,0.805,0.125,1.418,0.376,1.84c0.25,0.422,0.707,0.633,1.369,0.633c0.204,0,0.389-0.02,0.554-0.059
		c0.166-0.039,0.313-0.082,0.439-0.129c0.128-0.047,0.236-0.09,0.325-0.129s0.167-0.059,0.235-0.059
		c0.043,0,0.081,0.008,0.115,0.023c0.033,0.016,0.061,0.045,0.082,0.088s0.038,0.098,0.051,0.164
		C312.633,59.106,312.639,59.19,312.639,59.292z"/>
</g>
</svg>
